HIERARCHY
ROOT Hips
{
	OFFSET 0.00000 0.00000 0.00000
	CHANNELS 6 Xposition Yposition Zposition Zrotation Yrotation Xrotation 
	JOINT LHipJoint
	{
		OFFSET 0 0 0
		CHANNELS 3 Zrotation Yrotation Xrotation
		JOINT LeftHip
		{
			OFFSET 1.59715 -1.91394 0.36268
			CHANNELS 3 Zrotation Yrotation Xrotation
			JOINT LeftKnee
			{
				OFFSET 2.53886 -6.97546 0.00000
				CHANNELS 3 Zrotation Yrotation Xrotation
				JOINT LeftAnkle
				{
					OFFSET 2.77084 -7.61284 0.00000
					CHANNELS 3 Zrotation Yrotation Xrotation
					JOINT LeftToe
					{
						OFFSET 0.19855 -0.54550 2.06057
						CHANNELS 3 Zrotation Yrotation Xrotation
						End Site
						{
							OFFSET 0.00000 -0.00000 1.07182
						}
					}
				}
			}
		}
	}
	JOINT RHipJoint
	{
		OFFSET 0 0 0
		CHANNELS 3 Zrotation Yrotation Xrotation
		JOINT RightHip
		{
			OFFSET -1.71086 -1.91394 0.36268
			CHANNELS 3 Zrotation Yrotation Xrotation
			JOINT RightKnee
			{
				OFFSET -2.59448 -7.12828 0.00000
				CHANNELS 3 Zrotation Yrotation Xrotation
				JOINT RightAnkle
				{
					OFFSET -2.80237 -7.69945 0.00000
					CHANNELS 3 Zrotation Yrotation Xrotation
					JOINT RightToe
					{
						OFFSET -0.18280 -0.50224 2.06614
						CHANNELS 3 Zrotation Yrotation Xrotation
						End Site
						{
							OFFSET -0.00000 -0.00000 1.07055
						}
					}
				}
			}
		}
	}
	JOINT lowerback
	{
		OFFSET 0 0 0
		CHANNELS 3 Zrotation Yrotation Xrotation
		JOINT Chest
		{
			OFFSET 0.04838 1.91536 -0.09733
			CHANNELS 3 Zrotation Yrotation Xrotation
			JOINT Chest2
			{
				OFFSET 0.04097 1.92183 -0.02751
				CHANNELS 3 Zrotation Yrotation Xrotation
				JOINT lowerneck
				{
					OFFSET 0 0 0
					CHANNELS 3 Zrotation Yrotation Xrotation
					JOINT Neck
					{
						OFFSET 0.18766 3.12816 0.13727
						CHANNELS 3 Zrotation Yrotation Xrotation
						JOINT Head
						{
							OFFSET -0.11178 3.16074 0.02732
							CHANNELS 3 Zrotation Yrotation Xrotation
							End Site
							{
								OFFSET 0.47685 1.04189 0.57898
							}
						}
					}
				}
				JOINT LeftCollar
				{
					OFFSET 0 0 0
					CHANNELS 3 Zrotation Yrotation Xrotation
					JOINT LeftShoulder
					{
						OFFSET 3.49325 0.99827 -0.10681
CHANNELS 3 Zrotation Xrotation Yrotation
						JOINT LeftElbow
						{
OFFSET 0 -5.128420 0.000000
CHANNELS 3 Zrotation Xrotation Yrotation
							JOINT LeftWrist
							{
OFFSET 0 -3.473960 0.000000
CHANNELS 3 Zrotation Xrotation Yrotation
								JOINT lhand
								{
									OFFSET 0 0 0
CHANNELS 3 Zrotation Xrotation Yrotation
									JOINT LFingers
									{
OFFSET 0 -0.728610 0.000000
CHANNELS 3 Zrotation Xrotation Yrotation
										End Site
										{
OFFSET 0 -0.587420 0.000000
										}
									}
								}
								JOINT LThumb
								{
OFFSET 0 0.000000 0.000000
CHANNELS 3 Zrotation Xrotation Yrotation
									End Site
									{
OFFSET 0 -0.596390 0.596390
									}
								}
							}
						}
					}
				}
				JOINT RightCollar
				{
					OFFSET 0 0 0
					CHANNELS 3 Zrotation Yrotation Xrotation
					JOINT RightShoulder
					{
						OFFSET -3.23261 1.50670 -0.18692
CHANNELS 3 Zrotation Xrotation Yrotation
						JOINT RightElbow
						{
OFFSET 0 -5.484770 -0.000000
CHANNELS 3 Zrotation Xrotation Yrotation
							JOINT RightWrist
							{
OFFSET 0 -3.478560 0.000000
CHANNELS 3 Zrotation Xrotation Yrotation
								JOINT rhand
								{
									OFFSET 0 0 0
CHANNELS 3 Zrotation Xrotation Yrotation
									JOINT RFingers
									{
OFFSET 0 -0.709970 0.000000
CHANNELS 3 Zrotation Xrotation Yrotation
										End Site
										{
OFFSET 0 -0.572400 0.000000
										}
									}
								}
								JOINT RThumb
								{
OFFSET 0 0.000000 0.000000
CHANNELS 3 Zrotation Xrotation Yrotation
									End Site
									{
OFFSET 0 -0.581140 0.581140
									}
								}
							}
						}
					}
				}
			}
		}
	}
}
MOTION
Frames: 11
Frame Time: 0.008333333333333333
2.547600 18.108500 -9.030200 -2.148200 -2.299000 4.381100 0.000000 0.000000 0.000000 -20.405500 -13.653500 -11.232600 2.519300 9.872900 28.566100 1.013500 -0.725700 -18.802300 0.289700 3.461400 9.566000 0.000000 0.000000 0.000000 27.564000 11.344000 -14.108400 -3.317600 -11.192300 32.931100 -0.705500 -11.600500 -23.994800 -2.590600 -10.000900 28.979600 1.391100 -0.670100 1.116400 3.366600 -0.825100 -0.837700 2.696000 -0.409500 -1.455500 -4.773800 -1.899500 -14.507200 -2.193400 -0.939900 22.395500 -0.076600 -1.094800 9.501800 0.000000 0.000000 0.000000 -4.951100 -0.354300 -14.883500 14.565200 -23.536900 3.050200 12.178400 21.059400 -29.393800 0.000000 0.000000 0.000000 -7.125000 0.000000 0.000000 -21.182300 58.658100 7.281100 0.000000 0.000000 0.000000 -2.650900 -1.703800 15.621700 -13.039400 -21.344900 -2.467600 -26.033300 -6.323300 -10.899900 0.000000 0.000000 0.000000 7.125000 0.000000 -0.000000 0.743100 17.884200 0.479000
2.532906 18.113054 -9.055086 -1.977355 -1.934643 4.467810 0.000000 0.000000 0.000000 -20.499882 -13.975453 -11.222474 2.485558 9.811616 28.368736 1.000926 -0.662552 -18.702586 0.257945 3.267495 9.024307 0.000000 0.000000 0.000000 27.411121 11.250852 -14.260069 -3.299490 -11.164781 32.837518 -0.712137 -11.622798 -24.073059 -2.593897 -10.006679 28.998307 1.163093 -0.627074 1.497660 3.188398 -0.765801 -0.714425 2.642906 -0.378474 -1.544416 -5.098677 -1.959544 -14.593718 -1.815504 -1.018901 22.696067 0.095650 -1.122826 9.629702 0.000000 0.000000 0.000000 -4.988826 0.246546 -14.696109 14.669846 -23.684133 3.092092 12.082691 20.646555 -30.389322 0.000000 0.000000 0.000000 -7.125000 0.000000 0.000000 -22.035777 59.555457 8.071136 0.000000 0.000000 0.000000 -2.528956 -1.469498 15.739935 -13.026350 -21.325818 -2.462838 -25.669027 -7.973513 -14.023558 0.000000 0.000000 0.000000 7.125000 0.000000 0.000000 1.208964 14.493467 0.868114
2.516636 18.126280 -9.075628 -1.936140 -1.589627 4.689928 0.000000 0.000000 0.000000 -20.421264 -14.390193 -11.449749 2.489317 9.818490 28.390996 0.973627 -0.621807 -18.454750 0.267719 3.327821 9.192969 0.000000 0.000000 0.000000 27.382731 11.135768 -14.468102 -3.241246 -11.075664 32.535615 -0.670600 -11.810520 -23.901436 -2.553941 -9.935245 28.767262 1.076153 -0.605334 1.816909 3.111168 -0.731012 -0.678580 2.615090 -0.360250 -1.688079 -5.039919 -1.958697 -14.310134 -2.058401 -0.996515 22.481443 0.008775 -1.128043 9.499682 0.000000 0.000000 0.000000 -5.149590 0.643798 -13.444894 14.197797 -23.016811 2.905030 11.686774 21.051987 -31.958722 0.000000 0.000000 0.000000 -7.125000 0.000000 0.000000 -23.749135 60.892909 9.504886 0.000000 0.000000 0.000000 -2.436235 -1.260925 15.631896 -13.020887 -21.317735 -2.460877 -25.702531 -7.672186 -14.109256 0.000000 0.000000 0.000000 7.125000 0.000000 0.000000 1.192572 14.395478 0.858866
2.505867 18.127782 -9.077502 -2.311672 -1.364579 4.962085 0.000000 0.000000 0.000000 -19.849424 -14.496776 -11.946326 2.539126 9.908800 28.681822 0.987726 -0.855034 -18.519380 0.236080 3.126948 8.632377 0.000000 0.000000 0.000000 27.804842 11.111018 -14.621231 -3.182079 -10.984169 32.226462 -0.646121 -11.936311 -23.814712 -2.533101 -9.897805 28.646561 1.446619 -0.506002 1.858032 3.093280 -0.592138 -0.555079 2.383279 -0.295123 -1.593512 -5.069994 -1.982639 -14.861104 -1.936779 -1.005831 22.692278 0.048005 -1.127762 9.678448 0.000000 0.000000 0.000000 -5.080948 0.631482 -11.818500 13.353265 -21.802576 2.583051 11.642689 22.194452 -30.667107 0.000000 0.000000 0.000000 -7.125000 0.000000 0.000000 -22.713134 59.708928 8.418946 0.000000 0.000000 0.000000 -2.454688 -1.404150 15.647379 -12.964419 -21.235030 -2.440426 -25.720616 -7.898546 -14.188525 0.000000 0.000000 0.000000 7.125000 0.000000 0.000000 1.186474 14.306345 0.856679
2.494175 18.130672 -9.064843 -2.295744 -1.079627 4.985474 0.000000 0.000000 0.000000 -19.807046 -14.506787 -12.016260 2.552586 9.932865 28.759587 0.995697 -1.056804 -18.536765 0.213282 2.973149 8.204111 0.000000 0.000000 0.000000 27.849061 11.064621 -14.627920 -3.178232 -10.978212 32.206362 -0.634775 -12.093813 -23.875620 -2.547677 -9.924058 28.731190 1.240210 -0.509474 1.883409 3.106510 -0.602849 -0.492217 2.512975 -0.298604 -1.540597 -5.043452 -1.935460 -15.201707 -2.025789 -0.898744 22.705911 0.022997 -1.087565 9.745619 0.000000 0.000000 0.000000 -5.155992 0.732721 -11.097574 13.144856 -21.499092 2.506079 11.638405 22.787648 -30.902676 0.000000 0.000000 0.000000 -7.125000 0.000000 0.000000 -22.907994 59.922914 8.613932 0.000000 0.000000 0.000000 -2.644557 -1.525094 15.802511 -12.964679 -21.235436 -2.440493 -24.974511 -8.247493 -14.810774 0.000000 0.000000 0.000000 7.125000 0.000000 0.000000 1.739062 13.723853 1.277403
2.492450 18.128049 -9.071989 -2.387051 -0.905070 5.184491 0.000000 0.000000 0.000000 -19.647871 -14.669470 -12.320533 2.568669 9.961799 28.852977 0.992049 -1.042410 -18.505921 0.187176 2.786329 7.684503 0.000000 0.000000 0.000000 27.883864 10.828926 -15.033738 -3.194560 -11.003560 32.291870 -0.657850 -11.871364 -23.851394 -2.585976 -9.991805 28.950788 1.284763 -0.467971 1.977736 3.085265 -0.533912 -0.777991 2.467543 -0.263381 -1.890077 -5.018303 -1.999801 -14.574643 -1.932451 -1.080448 22.011684 0.039263 -1.140683 9.385101 0.000000 0.000000 0.000000 -5.067584 0.704409 -11.129512 13.233941 -21.629002 2.538901 11.646482 22.592267 -30.684025 0.000000 0.000000 0.000000 -7.125000 0.000000 0.000000 -22.722941 59.725085 8.432009 0.000000 0.000000 0.000000 -2.576218 -1.495123 15.460055 -12.913137 -21.159790 -2.421833 -25.372372 -8.012086 -14.863790 0.000000 0.000000 0.000000 7.125000 0.000000 0.000000 1.474496 13.614447 1.086557
2.502329 18.131059 -9.042241 -2.424348 -1.120134 5.044741 0.000000 0.000000 0.000000 -19.729923 -14.527634 -12.000914 2.556382 9.939717 28.781881 1.002610 -0.971176 -18.626871 0.213161 2.972316 8.201643 0.000000 0.000000 0.000000 27.925197 10.828793 -14.708604 -3.179169 -10.979557 32.210952 -0.653620 -11.836474 -23.780087 -2.549713 -9.926961 28.741266 1.417399 -0.333327 1.667219 2.981204 -0.365301 -0.704781 2.276314 -0.181599 -1.647452 -4.990172 -2.079802 -15.333080 -1.702567 -1.190766 22.505952 0.089391 -1.177307 9.702973 0.000000 0.000000 0.000000 -4.955161 0.424656 -11.815352 13.710275 -22.318988 2.717107 11.902133 21.950158 -30.650171 0.000000 0.000000 0.000000 -7.125000 0.000000 0.000000 -22.429832 59.753311 8.331181 0.000000 0.000000 0.000000 -2.381198 -1.836862 15.525937 -12.994541 -21.279203 -2.451310 -25.061981 -8.079702 -15.170874 0.000000 0.000000 0.000000 7.125000 0.000000 0.000000 1.707552 13.321207 1.268809
2.513452 18.122685 -9.021506 -2.370592 -1.093459 4.946955 0.000000 0.000000 0.000000 -19.884986 -14.669058 -11.678344 2.540045 9.910421 28.687115 1.005507 -0.869316 -18.683968 0.235365 3.122553 8.619993 0.000000 0.000000 0.000000 27.830415 10.608088 -14.615305 -3.184004 -10.987139 32.236538 -0.687208 -11.687269 -23.922786 -2.516346 -9.867613 28.548979 1.249857 -0.443856 1.622507 3.030010 -0.512858 -0.843318 2.426079 -0.252829 -1.758361 -4.773995 -1.965461 -14.844731 -1.915834 -1.078101 22.103009 0.001466 -1.120818 9.463982 0.000000 0.000000 0.000000 -5.011430 0.303954 -12.504384 14.200439 -23.020530 2.906055 11.375329 21.095999 -30.803841 0.000000 0.000000 0.000000 -7.125000 0.000000 0.000000 -23.101765 59.771804 8.608152 0.000000 0.000000 0.000000 -2.317482 -1.657621 16.484691 -13.424040 -21.905381 -2.609364 -25.722645 -8.697419 -14.133586 0.000000 0.000000 0.000000 7.125000 0.000000 0.000000 1.180848 14.366261 0.851171
2.512315 18.112783 -8.999956 -1.867410 -1.174847 4.871885 0.000000 0.000000 0.000000 -20.500734 -14.436252 -11.321052 2.469800 9.782800 28.276204 1.011698 -0.967754 -18.713147 0.230065 3.086982 8.521050 0.000000 0.000000 0.000000 27.208340 10.615385 -14.675107 -3.274981 -11.127464 32.710901 -0.859837 -10.862570 -24.598812 -2.924614 -10.571940 30.849483 0.690381 -0.494725 1.867098 2.978570 -0.587616 -0.885111 2.693326 -0.283123 -1.931095 -4.988663 -1.978306 -15.222046 -1.759609 -1.048162 22.346108 0.089642 -1.114394 9.623081 0.000000 0.000000 0.000000 -5.042200 0.306830 -13.894213 14.727864 -23.765574 3.115462 12.126398 20.425741 -32.007250 0.000000 0.000000 0.000000 -7.125000 0.000000 0.000000 -23.328622 61.043170 9.408664 0.000000 0.000000 0.000000 -2.279911 -1.612592 16.896391 -13.620495 -22.189508 -2.683075 -25.157494 -9.044860 -14.982186 0.000000 0.000000 0.000000 7.125000 0.000000 0.000000 1.628610 13.513669 1.203468
2.472592 18.092852 -8.980988 -1.997180 -1.642976 5.019990 0.000000 0.000000 0.000000 -20.145637 -14.221998 -11.827968 2.568146 9.960792 28.849767 1.050981 -0.963992 -19.081583 0.227762 3.071430 8.477698 0.000000 0.000000 0.000000 27.434078 10.737791 -14.942393 -3.315006 -11.188310 32.917740 -0.865157 -10.630212 -24.434480 -2.910677 -10.549056 30.773696 0.610648 -0.349325 2.162337 3.006072 -0.391558 -0.765824 2.761663 -0.184276 -1.982019 -4.741564 -1.900588 -15.733039 -1.716202 -0.979627 22.390826 0.067623 -1.059555 9.730300 0.000000 0.000000 0.000000 -4.774580 -0.036655 -14.221491 14.673368 -23.689075 3.093545 12.090576 20.284832 -32.324985 0.000000 0.000000 0.000000 -7.125000 0.000000 0.000000 -23.647154 61.321994 9.702696 0.000000 0.000000 0.000000 -1.917496 -1.762985 16.612770 -13.489433 -22.000095 -2.633808 -25.668217 -8.553956 -14.230727 0.000000 0.000000 0.000000 7.125000 0.000000 0.000000 1.225247 14.266891 0.885733
2.413892 18.076179 -8.884056 -2.202566 -1.529798 5.076413 0.000000 0.000000 0.000000 -19.723871 -13.888972 -12.003738 2.685776 10.168088 29.522892 1.114679 -1.227691 -19.588339 0.174571 2.690873 7.419335 0.000000 0.000000 0.000000 27.987186 10.296298 -14.685397 -3.302085 -11.168747 32.851085 -0.850718 -10.889137 -24.547873 -2.609950 -10.035068 29.090405 0.874025 -0.470912 2.286073 3.121522 -0.540789 -0.757724 2.739745 -0.261333 -2.038167 -4.773328 -1.817234 -15.270798 -1.808087 -0.862705 22.398627 0.060111 -1.016952 9.644871 0.000000 0.000000 0.000000 -4.822422 0.453096 -12.708154 14.291957 -23.150564 2.941927 12.154409 21.103866 -30.800124 0.000000 0.000000 0.000000 -7.125000 0.000000 0.000000 -22.287219 59.949127 8.380095 0.000000 0.000000 0.000000 -1.798008 -1.044029 16.807476 -13.448035 -21.940144 -2.618311 -25.561434 -8.784002 -14.022731 0.000000 0.000000 0.000000 7.125000 0.000000 0.000000 1.282022 14.507998 0.920322
